<svg width="60" height="55" viewBox="0 0 72 46" fill="none" xmlns="http://www.w3.org/2000/svg">
<path d="M37.9962 41.0008C56.1543 38.9857 69.9801 29.2934 68.8769 19.3525C67.7737 9.41167 52.1593 2.98659 34.0011 5.00173C15.843 7.01686 2.01725 16.7091 3.12046 26.65C4.22366 36.5908 19.8381 43.0159 37.9962 41.0008Z" stroke="#E0321A" stroke-width="2" stroke-miterlimit="10"/>
<path d="M15.92 32.69C15.77 32.69 15.61 32.69 15.45 32.68L14.7 32.63C12.18 32.35 10.24 31.42 8.88 29.88C7.5 28.31 6.93 26.3 7.18 23.91L8.86 8.98999L13.51 9.50999L11.84 24.33C11.7 25.54 11.91 26.48 12.46 27.18C13.01 27.88 13.89 28.29 15.13 28.43C15.38 28.46 15.63 28.47 15.86 28.47C16.77 28.47 17.48 28.26 18.03 27.81C18.72 27.25 19.13 26.39 19.26 25.18L20.93 10.34L25.62 10.87L23.95 25.75C23.69 27.94 22.78 29.68 21.24 30.94C19.82 32.1 18.03 32.69 15.92 32.69Z" fill="#FFD037"/>
<path d="M9.73997 10.09L12.4 10.39L10.84 24.22C10.67 25.7 10.95 26.89 11.67 27.8C12.39 28.71 13.5 29.25 15.01 29.42C15.3 29.45 15.58 29.47 15.85 29.47C16.99 29.47 17.92 29.18 18.64 28.59C19.54 27.87 20.07 26.77 20.24 25.29L21.8 11.45L24.51 11.75L22.95 25.64C22.72 27.57 21.94 29.07 20.6 30.16C19.35 31.17 17.79 31.68 15.91 31.68C15.77 31.68 15.63 31.68 15.48 31.67L14.76 31.62C12.52 31.37 10.81 30.56 9.61997 29.21C8.42997 27.85 7.93997 26.12 8.15997 24L9.73997 10.09ZM7.97997 7.88L7.75997 9.87001L6.18997 23.78C5.90997 26.48 6.55997 28.74 8.12997 30.53C9.65997 32.26 11.82 33.3 14.55 33.61H14.59H14.63L15.35 33.66H15.38H15.41C15.58 33.67 15.75 33.67 15.92 33.67C18.26 33.67 20.27 33.01 21.87 31.7C23.62 30.28 24.65 28.31 24.94 25.86L26.5 11.96L26.72 9.97001L24.73 9.75001L22.02 9.45L20.03 9.23001L19.81 11.22L18.25 25.06C18.14 26 17.86 26.64 17.39 27.02C17.02 27.31 16.52 27.46 15.85 27.46C15.66 27.46 15.45 27.45 15.23 27.42C14.27 27.31 13.61 27.03 13.23 26.55C12.85 26.07 12.71 25.38 12.82 24.44L14.38 10.61L14.6 8.62001L12.61 8.40001L9.94997 8.10001L7.97997 7.88Z" fill="#282525"/>
<path d="M38.81 35.05L31.57 20.68L30.06 34.07L25.37 33.54L27.89 11.13L32.13 11.61L39.39 26.05L40.91 12.6L45.57 13.12L43.05 35.53L38.81 35.05Z" fill="#FFD037"/>
<path d="M28.77 12.24L31.48 12.54L40.01 29.51L41.79 13.7L44.47 14L42.17 34.42L39.46 34.12L30.95 17.23L29.18 32.97L26.47 32.67L28.77 12.24ZM27.01 10.03L26.79 12.02L24.49 32.44L24.27 34.43L26.26 34.65L28.97 34.95L30.96 35.17L31.18 33.18L32.2 24.12L37.69 35.01L38.18 35.98L39.26 36.1L41.97 36.4L43.96 36.62L44.18 34.63L46.48 14.21L46.7 12.22L44.71 12L42.03 11.7L40.04 11.48L39.82 13.47L38.79 22.59L33.28 11.63L32.79 10.66L31.71 10.54L29 10.25L27.01 10.03Z" fill="#282525"/>
<path d="M55.5199 37.15C55.1299 37.15 54.7299 37.13 54.3299 37.08C52.5399 36.88 50.9699 36.25 49.6699 35.2C48.3699 34.15 47.4199 32.75 46.8299 31.04C46.2599 29.37 46.0799 27.48 46.2999 25.41L46.4699 23.93C46.7099 21.84 47.2899 19.99 48.2099 18.44C49.1599 16.85 50.3999 15.67 51.9099 14.92C53.0899 14.34 54.3799 14.04 55.7499 14.04C56.1199 14.04 56.4999 14.06 56.8799 14.1C58.6999 14.31 60.2799 14.94 61.5899 15.99C62.8999 17.04 63.8499 18.47 64.4099 20.23C64.9599 21.93 65.1099 23.88 64.8699 26L64.7199 27.29C64.4799 29.42 63.8999 31.28 62.9899 32.81C62.0499 34.39 60.8199 35.56 59.3199 36.29C58.1699 36.86 56.8899 37.15 55.5199 37.15ZM55.8199 18.38C54.6999 18.38 53.7799 18.78 52.9999 19.6C52.0299 20.62 51.4099 22.19 51.1499 24.26L50.9799 25.75C50.7399 27.87 50.9899 29.58 51.7099 30.84C52.3799 32.01 53.3999 32.66 54.7999 32.82C55.0099 32.84 55.2199 32.86 55.4199 32.86C56.5499 32.86 57.4599 32.48 58.2099 31.68C59.1499 30.68 59.7599 29.1 60.0299 26.96L60.1999 25.46C60.4499 23.27 60.2099 21.55 59.4999 20.34C58.8399 19.21 57.8199 18.58 56.3899 18.42C56.1999 18.39 56.0099 18.38 55.8199 18.38Z" fill="#FFD037"/>
<path d="M55.7499 15.04C56.0799 15.04 56.4199 15.06 56.7699 15.1C58.4099 15.28 59.7999 15.84 60.9599 16.77C62.1199 17.7 62.9499 18.95 63.4599 20.53C63.9599 22.11 64.0999 23.89 63.8799 25.88L63.7299 27.17C63.4999 29.17 62.9699 30.88 62.1299 32.3C61.2899 33.72 60.2099 34.75 58.8799 35.39C57.8499 35.89 56.7299 36.14 55.4999 36.14C55.1499 36.14 54.7899 36.12 54.4199 36.08C52.8099 35.9 51.4299 35.34 50.2799 34.41C49.1299 33.48 48.2899 32.24 47.7599 30.7C47.2399 29.16 47.0699 27.43 47.2699 25.5L47.4399 24.03C47.6599 22.07 48.1999 20.37 49.0499 18.94C49.8999 17.51 50.9999 16.47 52.3399 15.81C53.3999 15.3 54.5399 15.04 55.7499 15.04ZM55.4299 33.84C56.8399 33.84 58.0099 33.34 58.9499 32.35C60.0499 31.19 60.7399 29.43 61.0399 27.07L61.2099 25.56C61.4799 23.14 61.2099 21.22 60.3799 19.82C59.5499 18.42 58.2699 17.61 56.5199 17.42C56.2799 17.39 56.0499 17.38 55.8299 17.38C54.4299 17.38 53.2499 17.89 52.2899 18.91C51.1699 20.09 50.4599 21.84 50.1799 24.13L50.0099 25.63C49.7499 27.98 50.0299 29.88 50.8699 31.33C51.7099 32.78 52.9899 33.61 54.7199 33.8C54.9499 33.83 55.1899 33.84 55.4299 33.84ZM55.7499 13.04C54.2299 13.04 52.7899 13.37 51.4699 14.02C49.7899 14.85 48.3999 16.16 47.3499 17.92C46.3499 19.59 45.7199 21.57 45.4699 23.81L45.2999 25.28C45.0699 27.51 45.2699 29.54 45.8799 31.35C46.5199 33.25 47.5899 34.8 49.0399 35.97C50.4899 37.14 52.2299 37.84 54.2199 38.07C54.6599 38.12 55.0999 38.14 55.5199 38.14C57.0399 38.14 58.4799 37.82 59.7799 37.18C61.4499 36.36 62.8299 35.06 63.8699 33.31C64.8499 31.65 65.4799 29.66 65.7399 27.39L65.8899 26.1C66.1499 23.84 65.9799 21.75 65.3899 19.91C64.7699 17.96 63.7099 16.38 62.2399 15.2C60.7899 14.03 59.0299 13.33 57.0199 13.1C56.5799 13.07 56.1599 13.04 55.7499 13.04ZM55.4299 31.84C55.2699 31.84 55.0999 31.83 54.9199 31.81C53.8199 31.69 53.0999 31.23 52.5799 30.33C51.9699 29.26 51.7599 27.75 51.9799 25.85L52.1499 24.35C52.3799 22.52 52.9099 21.14 53.7299 20.28C54.3199 19.66 54.9799 19.37 55.8199 19.37C55.9699 19.37 56.1299 19.38 56.2899 19.4C57.4199 19.53 58.1499 19.97 58.6499 20.83C59.2499 21.85 59.4399 23.36 59.2199 25.33L59.0499 26.84C58.8099 28.74 58.2899 30.14 57.4999 30.97C56.9399 31.57 56.2799 31.84 55.4299 31.84Z" fill="#282525"/>
</svg>
