<svg width="51" height="60" viewBox="0 0 51 60" fill="none" xmlns="http://www.w3.org/2000/svg">
  <path d="M34.5 21.78V1.73c0-.53.38-.95.85-.95h13.81c.47 0 .85.43.85.95v24.18c0 .53-.38.95-.85.95H39" stroke="#FFD037" stroke-width="1.5" stroke-miterlimit="10"/>
  <path d="M12.49 32.28V12.23c0-.53.38-.95.85-.95h13.81c.47 0 .85.43.85.95v24.18c0 .53-.38.95-.85.95H16.99" stroke="#1065AD" stroke-width="1.5" stroke-miterlimit="10"/>
  <path d="M16.14 58.37H2.34c-.47 0-.85-.43-.85-.95V33.23c0-.53.38-.95.85-.95h13.81c.47 0 .85.43.85.95v24.18c-.01.53-.39.96-.86.96z" stroke="#76B911" stroke-width="1.5" stroke-miterlimit="10"/>
  <path d="M38.15 47.87h-13.8c-.47 0-.85-.43-.85-.95V22.73c0-.53.38-.95.85-.95h13.81c.47 0 .85.43.85.95v24.18c-.01.53-.39.96-.86.96z" stroke="#D22A13" stroke-width="1.5" stroke-miterlimit="10"/>
</svg>
