<svg width="72" height="46" viewBox="0 0 72 46" fill="none"
  xmlns="http://www.w3.org/2000/svg">
  <path d="M37.996 41c18.158-2.014 31.984-11.707 30.881-21.648-1.103-9.94-16.718-16.365-34.876-14.35C15.843 7.017 2.017 16.709 3.121 26.65 4.224 36.59 19.838 43.016 37.996 41z" stroke="#E0321A" stroke-width="2" stroke-miterlimit="10"/>
  <path d="M15.92 32.69c-.15 0-.31 0-.47-.01l-.75-.05c-2.52-.28-4.46-1.21-5.82-2.75-1.38-1.57-1.95-3.58-1.7-5.97L8.86 8.99l4.65.52-1.67 14.82c-.14 1.21.07 2.15.62 2.85.55.7 1.43 1.11 2.67 1.25.25.03.5.04.73.04.91 0 1.62-.21 2.17-.66.69-.56 1.1-1.42 1.23-2.63l1.67-14.84 4.69.53-1.67 14.88c-.26 2.19-1.17 3.93-2.71 5.19-1.42 1.16-3.21 1.75-5.32 1.75z" fill="#FFD037"/>
  <path d="M9.74 10.09l2.66.3-1.56 13.83c-.17 1.48.11 2.67.83 3.58.72.91 1.83 1.45 3.34 1.62.29.03.57.05.84.05 1.14 0 2.07-.29 2.79-.88.9-.72 1.43-1.82 1.6-3.3l1.56-13.84 2.71.3-1.56 13.89c-.23 1.93-1.01 3.43-2.35 4.52-1.25 1.01-2.81 1.52-4.69 1.52-.14 0-.28 0-.43-.01l-.72-.05c-2.24-.25-3.95-1.06-5.14-2.41-1.19-1.36-1.68-3.09-1.46-5.21l1.58-13.91zM7.98 7.88l-.22 1.99-1.57 13.91c-.28 2.7.37 4.96 1.94 6.75 1.53 1.73 3.69 2.77 6.42 3.08h.08l.72.05h.06c.17.01.34.01.51.01 2.34 0 4.35-.66 5.95-1.97 1.75-1.42 2.78-3.39 3.07-5.84l1.56-13.9.22-1.99-1.99-.22-2.71-.3-1.99-.22-.22 1.99-1.56 13.84c-.11.94-.39 1.58-.86 1.96-.37.29-.87.44-1.54.44-.19 0-.4-.01-.62-.04-.96-.11-1.62-.39-2-.87-.38-.48-.52-1.17-.41-2.11l1.56-13.83.22-1.99-1.99-.22-2.66-.3-1.97-.22z" fill="#282525"/>
  <path d="M38.81 35.05l-7.24-14.37-1.51 13.39-4.69-.53 2.52-22.41 4.24.48 7.26 14.44 1.52-13.45 4.66.52-2.52 22.41-4.24-.48z" fill="#FFD037"/>
  <path d="M28.77 12.24l2.71.3 8.53 16.97 1.78-15.81 2.68.3-2.3 20.42-2.71-.3-8.51-16.89-1.77 15.74-2.71-.3 2.3-20.43zm-1.76-2.21l-.22 1.99-2.3 20.42-.22 1.99 1.99.22 2.71.3 1.99.22.22-1.99 1.02-9.06 5.49 10.89.49.97 1.08.12 2.71.3 1.99.22.22-1.99 2.3-20.42.22-1.99-1.99-.22-2.68-.3-1.99-.22-.22 1.99-1.03 9.12-5.51-10.96-.49-.97-1.08-.12-2.71-.29-1.99-.22z" fill="#282525"/>
  <path d="M55.52 37.15c-.39 0-.79-.02-1.19-.07-1.79-.2-3.36-.83-4.66-1.88-1.3-1.05-2.25-2.45-2.84-4.16-.57-1.67-.75-3.56-.53-5.63l.17-1.48c.24-2.09.82-3.94 1.74-5.49.95-1.59 2.19-2.77 3.7-3.52 1.18-.58 2.47-.88 3.84-.88.37 0 .75.02 1.13.06 1.82.21 3.4.84 4.71 1.89 1.31 1.05 2.26 2.48 2.82 4.24.55 1.7.7 3.65.46 5.77l-.15 1.29c-.24 2.13-.82 3.99-1.73 5.52-.94 1.58-2.17 2.75-3.67 3.48-1.15.57-2.43.86-3.8.86zm.3-18.77c-1.12 0-2.04.4-2.82 1.22-.97 1.02-1.59 2.59-1.85 4.66l-.17 1.49c-.24 2.12.01 3.83.73 5.09.67 1.17 1.69 1.82 3.09 1.98.21.02.42.04.62.04 1.13 0 2.04-.38 2.79-1.18.94-1 1.55-2.58 1.82-4.72l.17-1.5c.25-2.19.01-3.91-.7-5.12-.66-1.13-1.68-1.76-3.11-1.92-.19-.03-.38-.04-.57-.04z" fill="#FFD037"/>
  <path d="M55.75 15.04c.33 0 .67.02 1.02.06 1.64.18 3.03.74 4.19 1.67 1.16.93 1.99 2.18 2.5 3.76.5 1.58.64 3.36.42 5.35l-.15 1.29c-.23 2-.76 3.71-1.6 5.13-.84 1.42-1.92 2.45-3.25 3.09-1.03.5-2.15.75-3.38.75-.35 0-.71-.02-1.08-.06-1.61-.18-2.99-.74-4.14-1.67-1.15-.93-1.99-2.17-2.52-3.71-.52-1.54-.69-3.27-.49-5.2l.17-1.47c.22-1.96.76-3.66 1.61-5.09.85-1.43 1.95-2.47 3.29-3.13 1.06-.51 2.2-.77 3.41-.77zm-.32 18.8c1.41 0 2.58-.5 3.52-1.49 1.1-1.16 1.79-2.92 2.09-5.28l.17-1.51c.27-2.42 0-4.34-.83-5.74-.83-1.4-2.11-2.21-3.86-2.4-.24-.03-.47-.04-.69-.04-1.4 0-2.58.51-3.54 1.53-1.12 1.18-1.83 2.93-2.11 5.22l-.17 1.5c-.26 2.35.02 4.25.86 5.7.84 1.45 2.12 2.28 3.85 2.47.23.03.47.04.71.04zm.32-20.8c-1.52 0-2.96.33-4.28.98-1.68.83-3.07 2.14-4.12 3.9-1 1.67-1.63 3.65-1.88 5.89l-.17 1.47c-.23 2.23-.03 4.26.58 6.07.64 1.9 1.71 3.45 3.16 4.62 1.45 1.17 3.19 1.87 5.18 2.1.44.05.88.07 1.3.07 1.52 0 2.96-.32 4.26-.96 1.67-.82 3.05-2.12 4.09-3.87.98-1.66 1.61-3.65 1.87-5.92l.15-1.29c.26-2.26.09-4.35-.5-6.19-.62-1.95-1.68-3.53-3.15-4.71-1.45-1.17-3.21-1.87-5.22-2.1-.44-.03-.86-.06-1.27-.06zm-.32 18.8c-.16 0-.33-.01-.51-.03-1.1-.12-1.82-.58-2.34-1.48-.61-1.07-.82-2.58-.6-4.48l.17-1.5c.23-1.83.76-3.21 1.58-4.07.59-.62 1.25-.91 2.09-.91.15 0 .31.01.47.03 1.13.13 1.86.57 2.36 1.43.6 1.02.79 2.53.57 4.5l-.17 1.51c-.24 1.9-.76 3.3-1.55 4.13-.56.6-1.22.87-2.07.87z" fill="#282525"/>
</svg>
