<svg width="20" height="22" viewBox="0 0 20 22" fill="none" xmlns="http://www.w3.org/2000/svg">
<path d="M18.5713 9.71748H16.7499V3.71748C16.7499 1.82373 15.215 0.28891 13.3213 0.28891H6.67843C4.78468 0.28891 3.24986 1.82373 3.24986 3.71748V9.71748H1.42843C0.954325 9.71748 0.571289 10.1005 0.571289 10.5746V20.8603C0.571289 21.3344 0.954325 21.7175 1.42843 21.7175H18.5713C19.0454 21.7175 19.4284 21.3344 19.4284 20.8603V10.5746C19.4284 10.1005 19.0454 9.71748 18.5713 9.71748ZM5.17843 3.71748C5.17843 2.8898 5.85075 2.21748 6.67843 2.21748H13.3213C14.149 2.21748 14.8213 2.8898 14.8213 3.71748V9.71748H5.17843V3.71748ZM17.4999 19.7889H2.49986V11.6461H17.4999V19.7889ZM9.24986 16.0657V17.4853C9.24986 17.6032 9.34629 17.6996 9.46415 17.6996H10.5356C10.6534 17.6996 10.7499 17.6032 10.7499 17.4853V16.0657C10.971 15.907 11.136 15.6821 11.2212 15.4236C11.3064 15.1651 11.3074 14.8862 11.224 14.6271C11.1406 14.368 10.9772 14.1421 10.7572 13.9818C10.5372 13.8215 10.2721 13.7351 9.99986 13.7351C9.72767 13.7351 9.4625 13.8215 9.24251 13.9818C9.02253 14.1421 8.85909 14.368 8.7757 14.6271C8.69232 14.8862 8.69331 15.1651 8.77851 15.4236C8.86372 15.6821 9.02875 15.907 9.24986 16.0657Z" fill="#FAAD14"/>
</svg>
