<svg width="22" height="40" viewBox="0 0 22 40" fill="none" xmlns="http://www.w3.org/2000/svg">
<path d="M10.2502 1.24487C13.5824 1.24487 16.9146 1.24487 20.2468 1.24487C20.2468 4.57707 20.2468 7.90926 20.2468 11.2415" stroke="white" stroke-width="2" stroke-miterlimit="10" stroke-linecap="round" stroke-linejoin="round"/>
<path d="M6.74684 25.7554C5.75904 24.2671 4.77124 22.792 3.78343 21.3037C3.17758 20.3949 3.28295 19.1963 4.03368 18.4061C9.6049 12.5188 14.1751 7.63245 19.7595 1.7583" stroke="white" stroke-width="2" stroke-miterlimit="10" stroke-linecap="round" stroke-linejoin="round"/>
<path d="M11.2512 38.2546C7.91903 38.2546 4.58683 38.2546 1.25464 38.2546C1.25464 34.9225 1.25464 31.5903 1.25464 28.2581" stroke="white" stroke-width="2" stroke-miterlimit="10" stroke-linecap="round" stroke-linejoin="round"/>
<path d="M14.7549 13.7439C15.7427 15.2322 16.7305 16.7073 17.7183 18.1956C18.3241 19.1044 18.2188 20.3029 17.468 21.0932C11.8968 26.9805 7.32658 31.8668 1.74219 37.741" stroke="white" stroke-width="2" stroke-miterlimit="10" stroke-linecap="round" stroke-linejoin="round"/>
</svg>
