<svg viewBox="0 0 418 264" fill="none"
  xmlns="http://www.w3.org/2000/svg">
  <path d="M220.615 236.763c105.686-11.729 186.157-68.141 179.735-126-6.421-57.859-97.302-95.255-202.988-83.526-105.686 11.729-186.157 68.14-179.736 126 6.421 57.859 97.302 95.255 202.989 83.526z" stroke="#D4380D" stroke-width="10" stroke-miterlimit="10"/>
  <path d="M92.125 188.391c-.873 0-1.805 0-2.736-.058l-4.365-.291c-14.667-1.63-25.959-7.043-33.874-16.006-8.032-9.138-11.35-20.837-9.895-34.747l9.778-86.84 27.065 3.027-9.72 86.257c-.815 7.043.407 12.514 3.608 16.588 3.202 4.075 8.323 6.461 15.54 7.276 1.456.174 2.91.233 4.25.233 5.296 0 9.428-1.223 12.63-3.842 4.016-3.259 6.402-8.265 7.159-15.307l9.72-86.374 27.297 3.085-9.72 86.606c-1.513 12.747-6.81 22.874-15.773 30.208-8.265 6.751-18.683 10.185-30.964 10.185z" fill="#FAAD14"/>
  <path d="M56.155 56.852l15.482 1.746-9.08 80.495c-.99 8.614.64 15.54 4.831 20.837 4.19 5.296 10.651 8.439 19.44 9.429 1.688.175 3.318.291 4.89.291 6.634 0 12.047-1.688 16.238-5.122 5.238-4.191 8.323-10.593 9.312-19.207l9.08-80.553 15.773 1.746-9.08 80.844c-1.338 11.233-5.878 19.964-13.677 26.308-7.276 5.878-16.355 8.847-27.298 8.847-.815 0-1.63 0-2.502-.058l-4.191-.291c-13.038-1.455-22.99-6.17-29.917-14.027-6.926-7.916-9.778-17.985-8.497-30.324l9.196-80.961zM45.91 43.989l-1.28 11.582-9.138 80.961c-1.63 15.715 2.153 28.869 11.291 39.287 8.905 10.07 21.477 16.123 37.367 17.927h.465l4.19.291h.35c.99.058 1.98.058 2.968.058 13.62 0 25.319-3.841 34.631-11.466 10.186-8.265 16.181-19.731 17.869-33.99l9.08-80.903 1.28-11.583-11.582-1.28-15.773-1.746-11.583-1.28-1.28 11.582-9.08 80.553c-.64 5.471-2.27 9.196-5.006 11.408-2.153 1.688-5.063 2.561-8.963 2.561-1.106 0-2.328-.058-3.608-.233-5.588-.64-9.43-2.27-11.641-5.063-2.212-2.794-3.027-6.81-2.386-12.281l9.08-80.495 1.28-11.583-11.583-1.28-15.482-1.747-11.466-1.28z" fill="#262626"/>
  <path d="M225.352 202.127l-42.139-83.638-8.788 77.934-27.298-3.084 14.667-130.434 24.679 2.794 42.255 84.045 8.847-78.283 27.123 3.026-14.667 130.434-24.679-2.794z" fill="#FAAD14"/>
  <path d="M166.916 69.366l15.773 1.746 49.648 98.771 10.36-92.02 15.598 1.746-13.386 118.852-15.774-1.747-49.531-98.305-10.302 91.612-15.773-1.746 13.387-118.91zm-10.244-12.863l-1.28 11.582-13.387 118.851-1.28 11.583 11.582 1.28 15.773 1.746 11.583 1.281 1.28-11.583 5.937-52.732 31.953 63.384 2.852 5.645 6.286.699 15.773 1.746 11.583 1.28 1.28-11.582 13.387-118.851 1.281-11.583-11.583-1.28-15.598-1.746-11.583-1.28-1.28 11.582-5.995 53.081-32.07-63.79-2.852-5.647-6.286-.698-15.773-1.688-11.583-1.28z" fill="#262626"/>
  <path d="M322.609 214.35c-2.27 0-4.598-.116-6.926-.407-10.419-1.164-19.557-4.831-27.123-10.943-7.567-6.111-13.096-14.259-16.53-24.212-3.317-9.72-4.365-20.72-3.085-32.769l.99-8.614c1.397-12.164 4.773-22.932 10.127-31.953 5.53-9.255 12.747-16.123 21.535-20.488 6.868-3.376 14.377-5.122 22.351-5.122 2.153 0 4.365.117 6.576.35 10.594 1.222 19.79 4.889 27.414 11 7.625 6.111 13.154 14.434 16.414 24.678 3.201 9.895 4.074 21.244 2.677 33.583l-.873 7.509c-1.397 12.397-4.773 23.223-10.069 32.128-5.471 9.196-12.63 16.006-21.361 20.255-6.693 3.317-14.143 5.005-22.117 5.005zm1.746-109.248c-6.519 0-11.874 2.329-16.413 7.101-5.646 5.937-9.255 15.075-10.768 27.123l-.989 8.672c-1.397 12.339.058 22.292 4.248 29.626 3.9 6.81 9.837 10.593 17.985 11.524 1.223.116 2.445.233 3.609.233 6.577 0 11.873-2.212 16.239-6.868 5.471-5.82 9.021-15.017 10.593-27.472l.989-8.731c1.455-12.746.058-22.757-4.074-29.8-3.842-6.577-9.778-10.243-18.101-11.175-1.106-.174-2.212-.233-3.318-.233z" fill="#FAAD14"/>
  <path d="M323.948 85.662c1.921 0 3.9.117 5.937.35 9.545 1.047 17.635 4.307 24.387 9.72 6.751 5.413 11.582 12.688 14.551 21.884 2.91 9.196 3.725 19.556 2.444 31.139l-.873 7.508c-1.338 11.641-4.423 21.594-9.312 29.858-4.889 8.265-11.175 14.26-18.916 17.985-5.995 2.91-12.514 4.366-19.673 4.366a58.44 58.44 0 01-6.286-.35c-9.371-1.047-17.403-4.307-24.096-9.72-6.694-5.413-11.583-12.63-14.668-21.593-3.026-8.963-4.016-19.033-2.852-30.266l.99-8.556c1.28-11.408 4.423-21.302 9.371-29.625 4.947-8.323 11.349-14.376 19.149-18.218 6.169-2.968 12.804-4.482 19.847-4.482zm-1.863 109.423c8.207 0 15.017-2.91 20.488-8.673 6.402-6.751 10.418-16.995 12.164-30.731l.99-8.789c1.571-14.085 0-25.26-4.831-33.408-4.831-8.149-12.281-12.863-22.466-13.97a32.21 32.21 0 00-4.016-.232c-8.149 0-15.017 2.969-20.604 8.905-6.519 6.868-10.652 17.054-12.281 30.382l-.99 8.731c-1.513 13.678.117 24.736 5.006 33.176 4.889 8.439 12.339 13.27 22.408 14.376 1.339.175 2.736.233 4.132.233zm1.863-121.063c-8.847 0-17.228 1.92-24.911 5.704-9.778 4.83-17.869 12.455-23.98 22.699-5.82 9.72-9.487 21.244-10.942 34.282l-.99 8.556c-1.338 12.979-.174 24.794 3.376 35.329 3.725 11.059 9.953 20.08 18.393 26.89 8.439 6.81 18.566 10.884 30.149 12.223 2.561.291 5.122.407 7.566.407 8.847 0 17.228-1.862 24.795-5.587 9.72-4.773 17.752-12.339 23.805-22.525 5.704-9.662 9.371-21.244 10.884-34.456l.873-7.509c1.513-13.154.524-25.318-2.91-36.027-3.609-11.35-9.778-20.546-18.334-27.414-8.44-6.81-18.683-10.884-30.382-12.223-2.561-.174-5.006-.35-7.392-.35zm-1.863 109.422c-.931 0-1.92-.058-2.968-.175-6.402-.698-10.593-3.375-13.62-8.614-3.55-6.227-4.772-15.016-3.492-26.075l.99-8.73c1.338-10.651 4.423-18.683 9.196-23.689 3.434-3.609 7.275-5.296 12.164-5.296.873 0 1.805.058 2.736.174 6.577.757 10.826 3.318 13.736 8.323 3.492 5.937 4.598 14.726 3.317 26.192l-.989 8.788c-1.397 11.059-4.423 19.208-9.022 24.038-3.259 3.493-7.1 5.064-12.048 5.064z" fill="#262626"/>
</svg>
