<svg width="70" height="44" viewBox="0 0 70 44" fill="none" xmlns="http://www.w3.org/2000/svg">
<path d="M36.9963 40.0007C55.1545 37.9856 68.9802 28.2933 67.877 18.3525C66.7738 8.41161 51.1594 1.98653 33.0013 4.00167C14.8431 6.0168 1.01737 15.7091 2.12058 25.6499C3.22379 35.5908 18.8382 42.0159 36.9963 40.0007Z" stroke="#E0321A" stroke-width="2" stroke-miterlimit="10"/>
<path d="M14.9202 31.69C14.7702 31.69 14.6102 31.69 14.4502 31.68L13.7002 31.63C11.1802 31.35 9.24025 30.42 7.88025 28.88C6.50025 27.31 5.93025 25.3 6.18025 22.91L7.86025 7.98999L12.5102 8.50999L10.8402 23.33C10.7002 24.54 10.9102 25.48 11.4602 26.18C12.0102 26.88 12.8902 27.29 14.1302 27.43C14.3802 27.46 14.6302 27.47 14.8602 27.47C15.7702 27.47 16.4802 27.26 17.0302 26.81C17.7202 26.25 18.1302 25.39 18.2602 24.18L19.9302 9.33999L24.6202 9.87L22.9502 24.75C22.6902 26.94 21.7802 28.68 20.2402 29.94C18.8202 31.1 17.0302 31.69 14.9202 31.69Z" fill="#FFD037"/>
<path d="M8.74021 9.08988L11.4002 9.38988L9.84021 23.2199C9.67021 24.6999 9.95021 25.8899 10.6702 26.7999C11.3902 27.7099 12.5002 28.2499 14.0102 28.4199C14.3002 28.4499 14.5802 28.4699 14.8502 28.4699C15.9902 28.4699 16.9202 28.1799 17.6402 27.5899C18.5402 26.8699 19.0702 25.7699 19.2402 24.2899L20.8002 10.4499L23.5102 10.7499L21.9502 24.6399C21.7202 26.5699 20.9402 28.0699 19.6002 29.1599C18.3502 30.1699 16.7902 30.6799 14.9102 30.6799C14.7702 30.6799 14.6302 30.6799 14.4802 30.6699L13.7602 30.6199C11.5202 30.3699 9.81021 29.5599 8.62021 28.2099C7.43021 26.8499 6.94021 25.1199 7.16021 22.9999L8.74021 9.08988ZM6.98021 6.87988L6.76021 8.86989L5.19021 22.7799C4.91021 25.4799 5.56021 27.7399 7.13021 29.5299C8.66021 31.2599 10.8202 32.2999 13.5502 32.6099H13.5902H13.6302L14.3502 32.6599H14.3802H14.4102C14.5802 32.6699 14.7502 32.6699 14.9202 32.6699C17.2602 32.6699 19.2702 32.0099 20.8702 30.6999C22.6202 29.2799 23.6502 27.3099 23.9402 24.8599L25.5002 10.9599L25.7202 8.96989L23.7302 8.74989L21.0202 8.44988L19.0302 8.22989L18.8102 10.2199L17.2502 24.0599C17.1402 24.9999 16.8602 25.6399 16.3902 26.0199C16.0202 26.3099 15.5202 26.4599 14.8502 26.4599C14.6602 26.4599 14.4502 26.4499 14.2302 26.4199C13.2702 26.3099 12.6102 26.0299 12.2302 25.5499C11.8502 25.0699 11.7102 24.3799 11.8202 23.4399L13.3802 9.60989L13.6002 7.61989L11.6102 7.39989L8.95021 7.09988L6.98021 6.87988Z" fill="#282525"/>
<path d="M37.8104 34.0499L30.5704 19.6799L29.0604 33.0699L24.3704 32.5399L26.8904 10.1299L31.1304 10.6099L38.3904 25.0499L39.9104 11.5999L44.5704 12.1199L42.0504 34.5299L37.8104 34.0499Z" fill="#FFD037"/>
<path d="M27.7703 11.2398L30.4803 11.5398L39.0103 28.5098L40.7903 12.6998L43.4703 12.9998L41.1703 33.4198L38.4603 33.1198L29.9503 16.2298L28.1803 31.9698L25.4703 31.6698L27.7703 11.2398ZM26.0103 9.02979L25.7903 11.0198L23.4903 31.4398L23.2703 33.4298L25.2603 33.6498L27.9703 33.9498L29.9603 34.1698L30.1803 32.1798L31.2003 23.1198L36.6903 34.0098L37.1803 34.9798L38.2603 35.0998L40.9703 35.3998L42.9603 35.6198L43.1803 33.6298L45.4803 13.2098L45.7003 11.2198L43.7103 10.9998L41.0303 10.6998L39.0403 10.4798L38.8203 12.4698L37.7903 21.5898L32.2803 10.6298L31.7903 9.65979L30.7103 9.53979L28.0003 9.24979L26.0103 9.02979Z" fill="#282525"/>
<path d="M54.5202 36.1498C54.1302 36.1498 53.7302 36.1298 53.3302 36.0798C51.5402 35.8798 49.9702 35.2498 48.6702 34.1998C47.3702 33.1498 46.4202 31.7498 45.8302 30.0398C45.2602 28.3698 45.0802 26.4798 45.3002 24.4098L45.4702 22.9298C45.7102 20.8398 46.2902 18.9898 47.2102 17.4398C48.1602 15.8498 49.4002 14.6698 50.9102 13.9198C52.0902 13.3398 53.3802 13.0398 54.7502 13.0398C55.1202 13.0398 55.5002 13.0598 55.8802 13.0998C57.7002 13.3098 59.2802 13.9398 60.5902 14.9898C61.9002 16.0398 62.8502 17.4698 63.4102 19.2298C63.9602 20.9298 64.1102 22.8798 63.8702 24.9998L63.7202 26.2898C63.4802 28.4198 62.9002 30.2798 61.9902 31.8098C61.0502 33.3898 59.8202 34.5598 58.3202 35.2898C57.1702 35.8598 55.8902 36.1498 54.5202 36.1498ZM54.8202 17.3798C53.7002 17.3798 52.7802 17.7798 52.0002 18.5998C51.0302 19.6198 50.4102 21.1898 50.1502 23.2598L49.9802 24.7498C49.7402 26.8698 49.9902 28.5798 50.7102 29.8398C51.3802 31.0098 52.4002 31.6598 53.8002 31.8198C54.0102 31.8398 54.2202 31.8598 54.4202 31.8598C55.5502 31.8598 56.4602 31.4798 57.2102 30.6798C58.1502 29.6798 58.7602 28.0998 59.0302 25.9598L59.2002 24.4598C59.4502 22.2698 59.2102 20.5498 58.5002 19.3398C57.8402 18.2098 56.8202 17.5798 55.3902 17.4198C55.2002 17.3898 55.0102 17.3798 54.8202 17.3798Z" fill="#FFD037"/>
<path d="M54.7502 14.0398C55.0802 14.0398 55.4202 14.0598 55.7702 14.0998C57.4102 14.2798 58.8002 14.8398 59.9602 15.7698C61.1202 16.6998 61.9502 17.9498 62.4602 19.5298C62.9602 21.1098 63.1002 22.8898 62.8802 24.8798L62.7302 26.1698C62.5002 28.1698 61.9702 29.8798 61.1302 31.2998C60.2902 32.7198 59.2102 33.7498 57.8802 34.3898C56.8502 34.8898 55.7302 35.1398 54.5002 35.1398C54.1502 35.1398 53.7902 35.1198 53.4202 35.0798C51.8102 34.8998 50.4302 34.3398 49.2802 33.4098C48.1302 32.4798 47.2902 31.2398 46.7602 29.6998C46.2402 28.1598 46.0702 26.4298 46.2702 24.4998L46.4402 23.0298C46.6602 21.0698 47.2002 19.3698 48.0502 17.9398C48.9002 16.5098 50.0002 15.4698 51.3402 14.8098C52.4002 14.2998 53.5402 14.0398 54.7502 14.0398ZM54.4302 32.8398C55.8402 32.8398 57.0102 32.3398 57.9502 31.3498C59.0502 30.1898 59.7402 28.4298 60.0402 26.0698L60.2102 24.5598C60.4802 22.1398 60.2102 20.2198 59.3802 18.8198C58.5502 17.4198 57.2702 16.6098 55.5202 16.4198C55.2802 16.3898 55.0502 16.3798 54.8302 16.3798C53.4302 16.3798 52.2502 16.8898 51.2902 17.9098C50.1702 19.0898 49.4602 20.8398 49.1802 23.1298L49.0102 24.6298C48.7502 26.9798 49.0302 28.8798 49.8702 30.3298C50.7102 31.7798 51.9902 32.6098 53.7202 32.7998C53.9502 32.8298 54.1902 32.8398 54.4302 32.8398ZM54.7502 12.0398C53.2302 12.0398 51.7902 12.3698 50.4702 13.0198C48.7902 13.8498 47.4002 15.1598 46.3502 16.9198C45.3502 18.5898 44.7202 20.5698 44.4702 22.8098L44.3002 24.2798C44.0702 26.5098 44.2702 28.5398 44.8802 30.3498C45.5202 32.2498 46.5902 33.7998 48.0402 34.9698C49.4902 36.1398 51.2302 36.8398 53.2202 37.0698C53.6602 37.1198 54.1002 37.1398 54.5202 37.1398C56.0402 37.1398 57.4802 36.8198 58.7802 36.1798C60.4502 35.3598 61.8302 34.0598 62.8702 32.3098C63.8502 30.6498 64.4802 28.6598 64.7402 26.3898L64.8902 25.0998C65.1502 22.8398 64.9802 20.7498 64.3902 18.9098C63.7702 16.9598 62.7102 15.3798 61.2402 14.1998C59.7902 13.0298 58.0302 12.3298 56.0202 12.0998C55.5802 12.0698 55.1602 12.0398 54.7502 12.0398ZM54.4302 30.8398C54.2702 30.8398 54.1002 30.8298 53.9202 30.8098C52.8202 30.6898 52.1002 30.2298 51.5802 29.3298C50.9702 28.2598 50.7602 26.7498 50.9802 24.8498L51.1502 23.3498C51.3802 21.5198 51.9102 20.1398 52.7302 19.2798C53.3202 18.6598 53.9802 18.3698 54.8202 18.3698C54.9702 18.3698 55.1302 18.3798 55.2902 18.3998C56.4202 18.5298 57.1502 18.9698 57.6502 19.8298C58.2502 20.8498 58.4402 22.3598 58.2202 24.3298L58.0502 25.8398C57.8102 27.7398 57.2902 29.1398 56.5002 29.9698C55.9402 30.5698 55.2802 30.8398 54.4302 30.8398Z" fill="#282525"/>
</svg>
