<svg width="44" height="44" viewBox="0 0 44 44" fill="none" xmlns="http://www.w3.org/2000/svg">
  <path d="M2.78003 21.5C3.04003 11.27 11.32 3.01002 21.55 2.77002V0.77002C10.21 1.01002 1.04003 10.16 0.780029 21.5H2.78003Z" fill="#FFD037"/>
  <path d="M22.55 2.78003C32.74 3.07003 40.9601 11.3 41.2201 21.5H43.2201C42.9601 10.2 33.84 1.07003 22.55 0.780029V2.78003Z" fill="#94D532"/>
  <path d="M41.2201 22.5C40.9601 32.7 32.74 40.93 22.55 41.22V43.22C33.84 42.93 42.9601 33.8 43.2201 22.5H41.2201Z" fill="#E0321A"/>
  <path d="M21.55 41.23C11.31 40.99 3.04003 32.73 2.78003 22.5H0.780029C1.05003 33.83 10.21 42.99 21.55 43.23V41.23Z" fill="#1471C0"/>
</svg>
