<svg xmlns="http://www.w3.org/2000/svg" viewBox="16 16 69 69" width="100px" height="100px">
  <path fill="#e85654" d="M29,81h42c5.523,0,10-4.477,10-10V29c0-5.523-4.477-10-10-10H29c-5.523,0-10,4.477-10,10v42 C19,76.523,23.477,81,29,81z"/>
  <path fill="#1f212b" d="M69.654,17.921h-39c-7.168,0-13,5.832-13,13v39c0,7.168,5.832,13,13,13h39c7.168,0,13-5.832,13-13	v-39C82.654,23.753,76.822,17.921,69.654,17.921z M80.654,69.921c0,6.065-4.935,11-11,11h-39c-6.065,0-11-4.935-11-11v-39	c0-6.065,4.935-11,11-11h39c6.065,0,11,4.935,11,11V69.921z"/>
  <path fill="#1f212b" d="M77.154,47.921c-0.276,0-0.5,0.224-0.5,0.5v18.663c0,5.424-4.413,9.837-9.837,9.837H33.49	c-5.424,0-9.837-4.413-9.837-9.837V33.758c0-5.424,4.413-9.837,9.837-9.837h33.663c0.276,0,0.5-0.224,0.5-0.5s-0.224-0.5-0.5-0.5	H33.49c-5.976,0-10.837,4.861-10.837,10.837v33.326c0,5.976,4.861,10.837,10.837,10.837h33.326c5.976,0,10.837-4.861,10.837-10.837	V48.421C77.654,48.145,77.43,47.921,77.154,47.921z M77.154,40.921c-0.276,0-0.5,0.224-0.5,0.5v4c0,0.276,0.224,0.5,0.5,0.5	s0.5-0.224,0.5-0.5v-4C77.654,41.145,77.43,40.921,77.154,40.921z M76.654,37.421v2c0,0.276,0.224,0.5,0.5,0.5s0.5-0.224,0.5-0.5v-2	c0-0.276-0.224-0.5-0.5-0.5S76.654,37.145,76.654,37.421z"/>
  <path fill="#ead032" d="M72.25,41.75c-1.25-2.5-4-7-11-4.25C57.5,39.25,57,45.25,57,45.25l-2.25-5L51.5,41.5l-0.25,5.75	l-5.75-3.5L37.25,47l3.5,11c0,0-0.5,1.5-2.25,1.25s-2.75-1.25-4-4.5s-2.25-6.25-2.25-6.25l-1.5,0.5c-1.25,0.5-2,0.75-2,0.75	s4.25,11.5,5,12.25s5,1.25,6.75,0.5s3.75-3.25,4.25-3.75s2.5,1.25,2.5,1.25L51,58l-2.5-7.75l9.25,6l2.5-1.5V52.5L65.5,53l3.75-1.5	l2.25-2.25C71.5,49.25,73.5,44.25,72.25,41.75z M66.5,48.75c-2.5,0.75-4-1-4.75-2C60.668,45.308,60.5,43,61.5,41.5	s4.75-0.5,5.25,0.75S69,48,66.5,48.75z"/>
  <path fill="#1f212b" fill-rule="evenodd" d="M64.979,39.021c-0.545,0-1.102,0.104-1.655,0.308 c-1.372,0.507-2.325,1.475-2.756,2.798c-0.378,1.164-0.314,2.539,0.179,3.875c0.844,2.286,2.62,3.706,4.634,3.706 c0.547,0,1.105-0.104,1.662-0.309c2.607-0.963,3.664-3.706,2.569-6.67C68.768,40.441,66.992,39.021,64.979,39.021z M66.549,48.138 c-0.521,0.481-1.463,0.521-2.541,0.088c-0.074-0.036-0.151-0.068-0.222-0.109c-0.129-0.075-0.251-0.165-0.372-0.257 c-0.085-0.065-0.172-0.125-0.253-0.198c-0.119-0.107-0.228-0.23-0.336-0.353c-0.068-0.078-0.142-0.149-0.206-0.233 c-0.112-0.145-0.21-0.305-0.307-0.465c-0.047-0.077-0.101-0.148-0.144-0.228c-0.134-0.247-0.254-0.506-0.354-0.777 c-0.087-0.234-0.153-0.472-0.209-0.71c-0.017-0.073-0.028-0.146-0.042-0.219c-0.032-0.169-0.057-0.338-0.073-0.506 c-0.007-0.079-0.014-0.157-0.017-0.236c-0.008-0.181-0.004-0.36,0.009-0.537c0.004-0.054,0.003-0.109,0.009-0.163 c0.005-0.041,0.018-0.079,0.024-0.12c0.301-0.966,1.259-1.244,2.474-0.916c1.231,0.332,2.165,1.473,2.663,2.823 c0.101,0.272,0.179,0.549,0.236,0.826C67.117,46.953,67.012,47.711,66.549,48.138z" clip-rule="evenodd"/>
  <path fill="#1f212b" fill-rule="evenodd" d="M73.315,44.345c-0.011-0.186-0.03-0.372-0.053-0.559 c-0.014-0.114-0.026-0.227-0.045-0.341c-0.033-0.202-0.076-0.403-0.122-0.605c-0.022-0.097-0.04-0.193-0.065-0.29 c-0.078-0.297-0.168-0.593-0.277-0.887c-1.602-4.339-6.015-6.881-10.496-5.226c-0.297,0.11-0.58,0.235-0.852,0.371 c-0.087,0.043-0.166,0.094-0.25,0.14c-0.18,0.098-0.359,0.198-0.528,0.307c-0.023,0.015-0.048,0.026-0.071,0.041l-0.001,0 c-2.047,1.313-3.631,3.151-4.423,4.635l-0.979-2.641l-4.067,1.502l-1.896,1.89l1.375,3.732l-5.267-3.468l-3.596,1.306l-0.008,0.008 l-4.074,1.504l-0.002,0l-0.002,0.002l-0.006,0.002l0.001,0.003l-1.897,1.887l3.257,8.821c0.201,0.545,0.319,1.122,0.28,1.672 c-0.07,0.328-0.316,0.445-0.578,0.488c-0.137,0.015-0.275,0.032-0.413,0.026c-1.297-0.058-2.085-1.05-2.505-2.188l-3.257-8.821 l-4.1,1.514L26.5,51.06l3.188,8.636c1.25,3.386,3.502,5.464,6.73,5.295c2.091-0.11,4.336-1.02,5.789-2.571l0.004-0.004 c0.646-0.633,1.355-1.285,1.906-1.902c0.013-0.014,0.025-0.028,0.037-0.042c0.118-0.134,0.227-0.265,0.327-0.395 c0.022-0.029,0.046-0.057,0.068-0.086c0.089-0.12,0.17-0.238,0.238-0.353l0.789,2.137l4.104-1.515l1.909-1.884l-0.027-0.001 l0.014-0.005l-1.496-4.07l5.595,3.744l3.374-1.229l1.904-1.893l-0.009,0.001l-0.221-0.596c1.735,0.684,3.724,0.762,5.741,0.017 c1.85-0.683,3.753-1.939,5.622-4.976c0.087-0.141,0.16-0.277,0.221-0.41c0.015-0.027,0.025-0.055,0.04-0.082 c0.1-0.184,0.189-0.374,0.274-0.566c0.031-0.069,0.066-0.136,0.095-0.206c0.108-0.265,0.203-0.535,0.283-0.811 c0.016-0.055,0.026-0.111,0.04-0.166c0.06-0.223,0.113-0.447,0.155-0.676c0.018-0.099,0.029-0.2,0.043-0.3 c0.027-0.188,0.051-0.376,0.066-0.567c0.009-0.113,0.013-0.226,0.017-0.339c0.007-0.183,0.01-0.366,0.005-0.55 C73.326,44.578,73.322,44.462,73.315,44.345z M40.898,61.317l-0.321,0.132l-0.313,0.115l-0.162,0.047 c-0.757,0.237-1.479,0.358-2.146,0.358c-2.401,0-4.185-1.533-5.302-4.558l-2.794-7.566l1.961-0.724l2.862,7.752 c0.671,1.818,1.923,2.86,3.523,2.933l0.167,0.003c0.474,0,0.95-0.087,1.418-0.26c0.533-0.197,1.002-0.483,1.393-0.852 c1.153-1.092,1.419-2.69,0.75-4.502l-2.861-7.751l1.961-0.724l2.833,7.672C45.3,57.273,44.329,59.866,40.898,61.317z M57.728,54.885l-11.467-7.672l3.854,10.481l-1.966,0.726l-4.981-13.488l1.981-0.719l11.105,7.313l-3.705-10.06l1.93-0.712 l5,13.491L57.728,54.885z M67.775,51.387c-0.782,0.289-1.581,0.436-2.376,0.436c-2.925,0-5.537-1.958-6.655-4.987 c-0.691-1.873-0.695-3.848-0.011-5.562c0.701-1.755,2.093-3.093,3.918-3.767c0.788-0.291,1.592-0.438,2.39-0.438 c2.916,0,5.522,1.958,6.643,4.99C73.144,46.015,71.464,50.026,67.775,51.387z" clip-rule="evenodd"/>
</svg>
